<svg aria-hidden="true" style="position: absolute; width: 0; height: 0; overflow: hidden;" version="1.1" xmlns="http://www.w3.org/2000/svg" xmlns:xlink="http://www.w3.org/1999/xlink">
<defs>
<symbol id="check-icon" viewBox="0 0 32 32">
<path fill="#4e5a85" d="M16 32c-8.837 0-16-7.163-16-16s7.163-16 16-16c8.837 0 16 7.163 16 16s-7.163 16-16 16zM14.405 22.4l11.312-11.314-2.262-2.262-9.050 9.051-4.526-4.526-2.262 2.262 6.789 6.789z"></path>
</symbol>
<symbol id="arrow" viewBox="0 0 32 32">
<path d="M16 18v14l16-16-16-16v14h-16v4h16z"></path>
</symbol>
<symbol id="folder" viewBox="0 0 32 32">
<path d="M13.462 1.6l3.2 3.2h13.738c0.883 0 1.6 0.717 1.6 1.6v22.4c0 0.883-0.717 1.6-1.6 1.6h-28.8c-0.883 0-1.6-0.717-1.6-1.6v-25.6c0-0.883 0.717-1.6 1.6-1.6h11.862zM17.6 11.2h-3.2v9.6h8v-3.2h-4.8v-6.4z"></path>
</symbol>
<symbol id="profile" viewBox="0 0 32 32">
<path d="M4.8 28.8h22.4v3.2h-22.4v-3.2zM16 25.6c-3.395 0-6.651-1.349-9.051-3.749s-3.749-5.656-3.749-9.051c0-3.395 1.349-6.651 3.749-9.051s5.656-3.749 9.051-3.749c3.395 0 6.65 1.349 9.051 3.749s3.749 5.656 3.749 9.051c0 3.395-1.349 6.65-3.749 9.051s-5.656 3.749-9.051 3.749z"></path>
</symbol>
<symbol id="graph" viewBox="0 0 32 32">
<path d="M3.282 1.231v26.256h26.256v3.282h-29.538v-29.538h3.282zM27.799 6.055l3.479 3.479-9.945 9.948-4.923-4.923-6.466 6.466-3.479-3.482 9.945-9.945 4.923 4.923 6.466-6.466z"></path>
</symbol>
<symbol id="bubbles" viewBox="0 0 32 32">
<path d="M24 22.4c2.651 0 4.8 2.149 4.8 4.8s-2.149 4.8-4.8 4.8c-2.651 0-4.8-2.149-4.8-4.8s2.149-4.8 4.8-4.8zM8 16c3.536 0 6.4 2.864 6.4 6.4s-2.864 6.4-6.4 6.4c-3.536 0-6.4-2.864-6.4-6.4s2.864-6.4 6.4-6.4zM21.6 0c4.861 0 8.8 3.939 8.8 8.8s-3.939 8.8-8.8 8.8c-4.861 0-8.8-3.939-8.8-8.8s3.939-8.8 8.8-8.8z"></path>
</symbol>
<symbol id="message" viewBox="0 0 32 32">
<path d="M8.466 30.118l-8.466 1.882 1.882-8.466c-1.239-2.318-1.886-4.906-1.882-7.534 0-8.837 7.163-16 16-16s16 7.163 16 16c0 8.837-7.163 16-16 16-2.628 0.004-5.217-0.642-7.534-1.882z"></path>
</symbol>
<symbol id="grid" viewBox="0 0 32 32">
<path d="M29.333 17.332v9.335c0 0.354-0.14 0.693-0.391 0.943s-0.589 0.391-0.943 0.391h-10.667v-10.668h12zM14.667 17.332v10.668h-10.667c-0.354 0-0.693-0.14-0.943-0.391s-0.391-0.589-0.391-0.943v-9.335h12zM14.667 4v10.665h-12v-9.332c0-0.354 0.14-0.693 0.391-0.943s0.589-0.391 0.943-0.391h10.667zM28 4c0.354 0 0.693 0.14 0.943 0.391s0.391 0.589 0.391 0.943v9.332h-12v-10.665h10.667z"></path>
</symbol>
<symbol id="logo" viewBox="0 0 32 32">
<path d="M23.681 4.026c0-2.075 1.685-3.76 3.76-3.76s3.76 1.685 3.76 3.76c0 2.075-1.685 3.76-3.76 3.76s-3.76-1.685-3.76-3.76zM17.675 20.171l4.508-5.817-0.062 0.031c0.25-0.343 0.296-0.78 0.125-1.17-0.17-0.39-0.546-0.655-0.95-0.686-0.423-0.047-0.842 0.14-1.094 0.484l-3.774 4.883-4.323-3.401c-0.265-0.203-0.577-0.282-0.889-0.249-0.31 0.047-0.591 0.217-0.78 0.466l-4.616 6.008-0.095 0.14c-0.265 0.498-0.14 1.137 0.328 1.482 0.218 0.14 0.452 0.234 0.718 0.234 0.36 0.016 0.702-0.173 0.92-0.468l3.916-5.040 4.446 3.34 0.14 0.092c0.499 0.265 1.123 0.142 1.482-0.328zM20.982 3.044c-0.062 0.39-0.094 0.78-0.094 1.17 0 3.51 2.839 6.348 6.334 6.348 0.39 0 0.764-0.045 1.155-0.108v12.587c0 5.29-3.12 8.425-8.424 8.425h-11.527c-5.306 0-8.426-3.135-8.426-8.425v-11.542c0-5.304 3.12-8.455 8.426-8.455h12.556z"></path>
</symbol>
<svg aria-hidden="true" style="position: absolute; width: 0; height: 0; overflow: hidden;" version="1.1" xmlns="http://www.w3.org/2000/svg" xmlns:xlink="http://www.w3.org/1999/xlink">
<defs>
<symbol id="facebook" viewBox="0 0 32 32">
<path d="M17.333 12h6l-0.667 2.667h-5.333v12h-2.667v-12h-5.333v-2.667h5.333v-2.496c0-2.377 0.248-3.24 0.712-4.109 0.455-0.859 1.157-1.561 2.016-2.016 0.869-0.464 1.732-0.712 4.109-0.712 0.696 0 1.307 0.067 1.829 0.2v2.467h-1.829c-1.765 0-2.303 0.104-2.851 0.397-0.405 0.216-0.707 0.517-0.923 0.923-0.293 0.548-0.397 1.085-0.397 2.851v2.496z"></path>
</symbol>
<symbol id="twitter" viewBox="0 0 32 32">
<path d="M20.4 7.4c-1.013-0-1.986 0.397-2.709 1.107s-1.139 1.675-1.157 2.689l-0.037 2.1c-0.002 0.113-0.028 0.224-0.076 0.326s-0.117 0.193-0.203 0.266c-0.086 0.073-0.186 0.128-0.294 0.16s-0.222 0.041-0.334 0.026l-2.081-0.283c-2.739-0.373-5.363-1.635-7.88-3.732-0.797 4.413 0.76 7.471 4.511 9.829l2.329 1.464c0.111 0.069 0.203 0.165 0.268 0.278s0.102 0.241 0.106 0.372c0.004 0.131-0.023 0.26-0.080 0.378s-0.142 0.219-0.248 0.296l-2.123 1.551c1.263 0.079 2.461 0.023 3.456-0.175 6.291-1.256 10.473-5.989 10.473-13.797 0-0.637-1.349-2.855-3.92-2.855zM13.867 11.146c0.023-1.285 0.425-2.535 1.155-3.593s1.756-1.877 2.95-2.354c1.194-0.478 2.501-0.592 3.76-0.33s2.412 0.89 3.315 1.804c0.948-0.007 1.755 0.233 3.559-0.86-0.447 2.187-0.667 3.136-1.619 4.441 0 10.189-6.263 15.144-12.617 16.412-4.357 0.869-10.693-0.559-12.509-2.455 0.925-0.072 4.685-0.476 6.859-2.067-1.839-1.212-9.157-5.519-4.348-17.097 2.257 2.636 4.547 4.431 6.867 5.383 1.544 0.633 1.923 0.62 2.631 0.717l-0.001-0.001z"></path>
</symbol>
<symbol id="insta" viewBox="0 0 32 32">
<path d="M16 12c-1.061 0-2.078 0.421-2.828 1.172s-1.172 1.768-1.172 2.828c0 1.061 0.421 2.078 1.172 2.828s1.768 1.172 2.828 1.172c1.061 0 2.078-0.421 2.828-1.172s1.172-1.768 1.172-2.828c0-1.061-0.421-2.078-1.172-2.828s-1.768-1.172-2.828-1.172zM16 9.333c1.768 0 3.464 0.702 4.714 1.953s1.953 2.946 1.953 4.714c0 1.768-0.702 3.464-1.953 4.714s-2.946 1.953-4.714 1.953c-1.768 0-3.464-0.702-4.714-1.953s-1.953-2.946-1.953-4.714c0-1.768 0.702-3.464 1.953-4.714s2.946-1.953 4.714-1.953zM24.667 9c0 0.442-0.176 0.866-0.488 1.178s-0.736 0.488-1.179 0.488-0.866-0.176-1.179-0.488c-0.312-0.313-0.488-0.736-0.488-1.178s0.176-0.866 0.488-1.178c0.313-0.313 0.736-0.488 1.179-0.488s0.866 0.176 1.179 0.488c0.312 0.313 0.488 0.736 0.488 1.178zM16 5.333c-3.299 0-3.837 0.009-5.372 0.077-1.045 0.049-1.747 0.189-2.397 0.443-0.579 0.224-0.996 0.492-1.44 0.937-0.417 0.403-0.738 0.895-0.939 1.44-0.253 0.653-0.393 1.353-0.441 2.397-0.069 1.472-0.077 1.987-0.077 5.372 0 3.299 0.009 3.837 0.077 5.372 0.049 1.044 0.189 1.747 0.441 2.396 0.227 0.58 0.493 0.997 0.936 1.44 0.449 0.448 0.867 0.716 1.44 0.937 0.659 0.255 1.36 0.396 2.4 0.444 1.472 0.069 1.987 0.077 5.372 0.077 3.299 0 3.837-0.009 5.372-0.077 1.043-0.049 1.745-0.189 2.396-0.441 0.577-0.225 0.997-0.493 1.44-0.936 0.449-0.449 0.717-0.867 0.939-1.44 0.253-0.657 0.395-1.36 0.443-2.4 0.069-1.472 0.077-1.987 0.077-5.372 0-3.299-0.009-3.837-0.077-5.372-0.049-1.043-0.189-1.747-0.443-2.397-0.201-0.544-0.521-1.036-0.937-1.44-0.403-0.418-0.895-0.738-1.44-0.939-0.653-0.253-1.355-0.393-2.397-0.441-1.472-0.069-1.987-0.077-5.372-0.077zM16 2.666c3.623 0 4.075 0.013 5.496 0.080 1.42 0.067 2.387 0.289 3.237 0.62 0.88 0.339 1.621 0.797 2.363 1.537 0.678 0.667 1.203 1.473 1.537 2.363 0.329 0.849 0.553 1.817 0.62 3.237 0.063 1.421 0.080 1.873 0.080 5.496s-0.013 4.075-0.080 5.496c-0.067 1.42-0.291 2.387-0.62 3.237-0.334 0.89-0.858 1.697-1.537 2.363-0.667 0.678-1.473 1.202-2.363 1.537-0.849 0.329-1.817 0.553-3.237 0.62-1.421 0.063-1.873 0.080-5.496 0.080s-4.075-0.013-5.496-0.080c-1.42-0.067-2.387-0.291-3.237-0.62-0.89-0.334-1.697-0.859-2.363-1.537-0.678-0.666-1.203-1.473-1.537-2.363-0.331-0.849-0.553-1.817-0.62-3.237-0.063-1.421-0.080-1.873-0.080-5.496s0.013-4.075 0.080-5.496c0.067-1.421 0.289-2.387 0.62-3.237 0.334-0.89 0.858-1.697 1.537-2.363 0.666-0.678 1.473-1.203 2.363-1.537 0.851-0.331 1.816-0.553 3.237-0.62 1.421-0.063 1.873-0.080 5.496-0.080z"></path>
</symbol>
<symbol id="Linkedin" viewBox="0 0 32 32">
<path d="M16 12.733c1.223-1.249 2.815-2.067 4.667-2.067 1.945 0 3.81 0.773 5.185 2.148s2.148 3.241 2.148 5.185v10h-2.667v-10c0-1.238-0.492-2.425-1.367-3.3s-2.062-1.367-3.3-1.367c-1.238 0-2.425 0.492-3.3 1.367s-1.367 2.062-1.367 3.3v10h-2.667v-16.667h2.667v1.4zM6.667 8.666c-0.53 0-1.039-0.211-1.414-0.586s-0.586-0.884-0.586-1.414c0-0.53 0.211-1.039 0.586-1.414s0.884-0.586 1.414-0.586c0.53 0 1.039 0.211 1.414 0.586s0.586 0.884 0.586 1.414c0 0.53-0.211 1.039-0.586 1.414s-0.884 0.586-1.414 0.586zM5.333 11.333h2.667v16.667h-2.667v-16.667z"></path>
</symbol>
</defs>
</svg>

</defs>
</svg>
